# 3ds Max Wavefront OBJ Exporter v0.97b - (c)2007 guruware
# File Created: 18.12.2014 20:17:48

#
# object GeoSphere001
#

v  0.3314 0.3556 0.2243
v  0.5366 0.0497 0.0025
v  0.4789 0.2140 -0.1259
v  0.1001 -0.4407 -0.0139
v  0.0814 -0.4088 -0.2894
v  0.3535 -0.3996 -0.1372
v  -0.3230 0.0470 0.5225
v  -0.3633 -0.1114 0.3809
v  -0.2225 -0.1474 0.5214
v  -0.3594 0.1125 -0.4518
v  -0.3460 0.3160 -0.1850
v  -0.3519 0.2698 -0.4490
v  0.0669 0.0132 0.6592
v  -0.0157 0.2599 0.5647
v  -0.1663 0.1059 0.6061
v  -0.1787 0.5162 0.1279
v  0.2973 0.4161 0.0054
v  -0.1293 0.3512 -0.3464
v  -0.2343 -0.0208 -0.6499
v  -0.0332 -0.2071 -0.6650
v  -0.3130 -0.3223 -0.1264
v  0.5134 -0.1107 -0.3124
v  0.3549 0.0579 -0.4392
v  0.5312 0.0619 -0.2350
v  0.3193 -0.3922 0.1260
v  0.0097 -0.2452 0.5343
v  -0.0339 -0.3998 0.2039
v  0.5583 -0.1440 0.1136
v  0.2568 0.3237 0.4184
v  0.2853 -0.0554 0.4834
v  0.0199 0.2017 -0.6324
v  0.4084 0.2083 -0.3442
v  0.2494 0.2993 -0.3802
v  -0.1830 -0.4085 -0.0634
v  -0.4210 0.2314 0.2098
v  -0.3776 -0.1984 -0.1660
v  -0.4059 -0.1564 0.1635
v  -0.2582 0.3690 -0.2749
v  -0.2960 0.4671 -0.0101
v  -0.3125 0.5152 0.2383
v  -0.2343 0.3824 0.4661
v  0.1264 0.4234 0.4212
v  0.1343 -0.3092 -0.5487
v  0.4985 -0.2847 -0.2391
v  0.5666 -0.3159 0.0000
v  0.2121 -0.2348 0.4701
v  -0.2626 0.1752 -0.6636
v  -0.1181 0.3069 -0.5400
v  0.2252 0.4654 0.2284
v  0.2264 0.0821 0.5623
v  0.1541 0.2302 0.5648
v  -0.4253 0.0807 0.3357
v  -0.0568 -0.3540 -0.3881
v  0.0804 -0.1487 -0.7201
v  0.3086 -0.1536 -0.4631
v  -0.0746 -0.1081 0.6365
v  -0.2909 -0.3076 0.1954
v  -0.1653 -0.2803 0.3828
v  -0.0800 0.0062 -0.7617
v  -0.1197 0.2068 -0.6987
v  -0.2626 0.3118 -0.5282
v  0.6241 -0.1427 -0.1090
v  0.4001 0.3333 0.0053
v  -0.3762 0.2504 0.4493
v  -0.3893 0.3961 0.0822
v  0.1608 0.0486 -0.5928
v  0.0627 0.0366 -0.7197
v  0.1430 -0.1318 0.6195
v  -0.3987 0.4189 0.3140
v  0.3736 0.3244 -0.2038
# 70 vertices

vn 0.7974 0.5363 0.2767
vn 0.9119 0.3566 0.2034
vn 0.8687 0.4918 -0.0595
vn 0.0220 -0.9990 0.0386
vn 0.0023 -0.9680 -0.2508
vn 0.3066 -0.9377 -0.1632
vn -0.6914 -0.0961 0.7161
vn -0.7985 -0.4314 0.4199
vn -0.5377 -0.5477 0.6409
vn -0.9603 -0.0709 -0.2698
vn -0.8149 0.5230 -0.2499
vn -0.8696 0.4357 -0.2324
vn 0.1499 0.0808 0.9854
vn -0.0176 0.4923 0.8702
vn -0.3144 0.1847 0.9312
vn 0.0337 0.9944 -0.1001
vn 0.4103 0.9028 -0.1289
vn 0.0544 0.9628 -0.2645
vn -0.7053 -0.3598 -0.6108
vn -0.3161 -0.6729 -0.6688
vn -0.6916 -0.6995 -0.1799
vn 0.7603 -0.0848 -0.6440
vn 0.6415 0.1341 -0.7553
vn 0.8855 0.3055 -0.3501
vn 0.2935 -0.9066 0.3033
vn -0.0474 -0.7893 0.6122
vn -0.1149 -0.9468 0.3006
vn 0.8808 -0.0354 0.4722
vn 0.6974 0.4698 0.5412
vn 0.7888 -0.1032 0.6060
vn 0.4158 0.6279 -0.6579
vn 0.6929 0.4619 -0.5537
vn 0.3375 0.8065 -0.4854
vn -0.3487 -0.9363 -0.0418
vn -0.9977 0.0647 -0.0216
vn -0.9248 -0.3181 -0.2087
vn -0.9399 -0.3315 0.0814
vn -0.3472 0.8977 -0.2713
vn -0.4214 0.8535 -0.3065
vn -0.3711 0.9163 0.1503
vn -0.2485 0.6322 0.7339
vn 0.2410 0.8014 0.5474
vn 0.2703 -0.7669 -0.5821
vn 0.6524 -0.5919 -0.4734
vn 0.7581 -0.6335 0.1551
vn 0.4796 -0.6558 0.5831
vn -0.6469 0.2456 -0.7219
vn 0.1045 0.9077 -0.4064
vn 0.4184 0.8950 0.1549
vn 0.7042 0.1297 0.6981
vn 0.3689 0.4261 0.8260
vn -0.9746 -0.0525 0.2177
vn -0.3231 -0.8649 -0.3841
vn 0.3650 -0.3290 -0.8709
vn 0.6516 -0.1867 -0.7352
vn -0.2511 -0.3564 0.9000
vn -0.5981 -0.7580 0.2602
vn -0.3883 -0.7985 0.4601
vn -0.1633 -0.0655 -0.9844
vn 0.0099 0.5878 -0.8089
vn -0.3629 0.8258 -0.4318
vn 0.9929 -0.0316 -0.1149
vn 0.7972 0.5974 0.0872
vn -0.7667 0.2211 0.6028
vn -0.8995 0.4041 -0.1665
vn 0.6768 0.2312 -0.6989
vn 0.5285 0.2564 -0.8093
vn 0.3983 -0.3888 0.8308
vn -0.8076 0.4971 0.3174
vn 0.5601 0.7774 -0.2863
# 70 vertex normals

vt 0.5460 0.2874 0.0000
vt 0.6996 0.3044 0.0000
vt 0.6742 0.3690 0.0000
vt 0.8838 0.1234 0.0000
vt 0.9749 0.2305 0.0000
vt 0.8691 0.2425 0.0000
vt 0.5181 0.8697 0.0000
vt 0.4939 0.7947 0.0000
vt 0.5661 0.7953 0.0000
vt 0.1964 0.7094 0.0000
vt 0.2294 0.8352 0.0000
vt 0.1696 0.7545 0.0000
vt 0.5365 0.0748 0.0000
vt 0.4561 0.1514 0.0000
vt 0.4334 0.0758 0.0000
vt 0.3875 0.4045 0.0000
vt 0.5686 0.3623 0.0000
vt 0.5516 0.5684 0.0000
vt 0.1534 0.6198 0.0000
vt 0.1601 0.5243 0.0000
vt 0.3731 0.6297 0.0000
vt 0.8031 0.3735 0.0000
vt 0.7814 0.4674 0.0000
vt 0.7394 0.3803 0.0000
vt 0.8017 0.1540 0.0000
vt 0.6340 0.0171 0.0000
vt 0.7971 0.0172 0.0000
vt 0.7452 0.2449 0.0000
vt 0.5211 0.2260 0.0000
vt 0.6257 0.1293 0.0000
vt 0.7380 0.6197 0.0000
vt 0.7138 0.4440 0.0000
vt 0.6729 0.4881 0.0000
vt 0.4571 0.5008 0.0000
vt 0.4079 0.5940 0.0000
vt 0.3308 0.4710 0.0000
vt 0.3773 0.8829 0.0000
vt 0.3411 0.6673 0.0000
vt 0.4328 0.7446 0.0000
vt 0.1732 0.8372 0.0000
vt 0.2509 0.9241 0.0000
vt 0.3151 0.3268 0.0000
vt 0.3609 0.2036 0.0000
vt 0.4769 0.2480 0.0000
vt 0.9902 0.3839 0.0000
vt 0.8386 0.3154 0.0000
vt 0.7951 0.2510 0.0000
vt 0.6686 0.0778 0.0000
vt 0.1256 0.6766 0.0000
vt 0.6289 0.6293 0.0000
vt 0.5046 0.3084 0.0000
vt 0.5664 0.1361 0.0000
vt 0.5131 0.1618 0.0000
vt 0.4421 0.8539 0.0000
vt 0.2844 0.5176 0.0000
vt 0.9605 0.5124 0.0000
vt 0.8736 0.4232 0.0000
vt 0.5314 0.0148 0.0000
vt 0.5271 0.6066 0.0000
vt 0.4760 0.6904 0.0000
vt 0.6413 0.7226 0.0000
vt 0.5559 0.7137 0.0000
vt 0.1060 0.5877 0.0000
vt 0.0865 0.6638 0.0000
vt 0.1307 0.7444 0.0000
vt 0.7739 0.3064 0.0000
vt 0.6066 0.3463 0.0000
vt 0.4550 0.9279 0.0000
vt 0.3059 0.9140 0.0000
vt 0.8374 0.5376 0.0000
vt 0.0597 0.5787 0.0000
vt 0.6001 0.0630 0.0000
vt 0.3804 0.9589 0.0000
vt 0.3396 0.9876 0.0000
vt 0.1007 0.5129 0.0000
vt 0.6470 0.4153 0.0000
vt 0.4641 0.9921 0.0000
vt 0.5697 0.9055 0.0000
vt 0.1936 0.4513 0.0000
vt 0.1164 0.8372 0.0000
vt 0.2620 0.9941 0.0000
vt 0.6306 0.8172 0.0000
vt 0.0048 0.5758 0.0000
vt 0.0384 0.6589 0.0000
vt 0.0817 0.7403 0.0000
# 85 texture coords

g GeoSphere001
f 1/1/1 2/2/2 3/3/3 
f 4/4/4 5/5/5 6/6/6 
f 7/7/7 8/8/8 9/9/9 
f 10/10/10 11/11/11 12/12/12 
f 13/13/13 14/14/14 15/15/15 
f 16/16/16 17/17/17 18/18/18 
f 19/19/19 20/20/20 21/21/21 
f 22/22/22 23/23/23 24/24/24 
f 25/25/25 26/26/26 27/27/27 
f 28/28/28 29/29/29 30/30/30 
f 23/23/23 31/31/31 32/32/32 
f 17/17/17 33/33/33 18/18/18 
f 4/34/4 34/35/34 5/36/5 
f 35/37/35 36/38/36 37/39/37 
f 38/40/38 11/11/11 39/41/39 
f 40/42/40 41/43/41 42/44/42 
f 6/6/6 43/45/43 44/46/44 
f 45/47/45 28/28/28 46/48/46 
f 12/12/12 47/49/47 10/10/10 
f 31/31/31 48/50/48 33/33/33 
f 16/16/16 42/44/42 49/51/49 
f 50/52/50 29/29/29 51/53/51 
f 52/54/52 8/8/8 7/7/7 
f 15/15/15 14/14/14 41/43/41 
f 53/55/53 21/21/21 20/20/20 
f 43/45/43 54/56/54 55/57/55 
f 25/25/25 46/48/46 26/26/26 
f 56/58/56 13/13/13 15/15/15 
f 27/59/27 57/60/57 34/35/34 
f 27/59/27 26/61/26 58/62/58 
f 59/63/59 47/49/47 60/64/60 
f 47/49/47 61/65/61 60/64/60 
f 44/46/44 62/66/62 45/47/45 
f 24/24/24 62/66/62 22/22/22 
f 21/21/21 37/39/37 36/38/36 
f 19/19/19 21/21/21 36/38/36 
f 17/17/17 1/1/1 63/67/63 
f 42/44/42 29/29/29 49/51/49 
f 64/68/64 52/54/52 7/7/7 
f 35/37/35 65/69/65 36/38/36 
f 3/3/3 2/2/2 24/24/24 
f 31/31/31 33/33/33 32/32/32 
f 66/70/66 55/57/55 54/56/54 
f 59/63/59 60/64/60 67/71/67 
f 58/62/58 26/61/26 9/9/9 
f 56/58/56 26/26/26 68/72/68 
f 51/53/51 13/13/13 50/52/50 
f 46/48/46 28/28/28 30/30/30 
f 58/62/58 9/9/9 8/8/8 
f 57/60/57 37/39/37 21/21/21 
f 35/37/35 69/73/69 65/69/65 
f 40/74/40 65/69/65 69/73/69 
f 59/63/59 20/20/20 19/19/19 
f 54/75/54 59/63/59 67/71/67 
f 17/17/17 63/67/63 70/76/70 
f 32/32/32 70/76/70 3/3/3 
f 1/1/1 28/28/28 2/2/2 
f 45/47/45 62/66/62 28/28/28 
f 42/44/42 51/53/51 29/29/29 
f 42/44/42 41/43/41 14/14/14 
f 25/25/25 45/47/45 46/48/46 
f 4/4/4 6/6/6 25/25/25 
f 13/13/13 56/58/56 68/72/68 
f 13/13/13 68/72/68 50/52/50 
f 40/74/40 69/73/69 41/77/41 
f 15/78/15 41/77/41 64/68/64 
f 44/46/44 22/22/22 62/66/62 
f 43/45/43 55/57/55 44/46/44 
f 53/55/53 20/20/20 43/79/43 
f 5/5/5 43/45/43 6/6/6 
f 38/40/38 12/12/12 11/11/11 
f 18/18/18 33/33/33 48/50/48 
f 16/16/16 40/42/40 42/44/42 
f 18/80/18 39/41/39 16/81/16 
f 36/38/36 65/69/65 10/10/10 
f 10/10/10 19/19/19 36/38/36 
f 47/49/47 19/19/19 10/10/10 
f 47/49/47 59/63/59 19/19/19 
f 34/35/34 21/21/21 53/55/53 
f 34/35/34 57/60/57 21/21/21 
f 56/82/56 15/78/15 7/7/7 
f 7/7/7 15/78/15 64/68/64 
f 38/40/38 61/65/61 12/12/12 
f 47/49/47 12/12/12 61/65/61 
f 59/63/59 54/75/54 20/20/20 
f 43/79/43 20/20/20 54/75/54 
f 6/6/6 45/47/45 25/25/25 
f 6/6/6 44/46/44 45/47/45 
f 66/83/66 54/75/54 67/71/67 
f 31/84/31 66/83/66 67/71/67 
f 17/17/17 70/76/70 33/33/33 
f 32/32/32 33/33/33 70/76/70 
f 52/54/52 37/39/37 8/8/8 
f 57/60/57 8/8/8 37/39/37 
f 68/72/68 46/48/46 30/30/30 
f 68/72/68 26/26/26 46/48/46 
f 4/4/4 25/25/25 27/27/27 
f 4/34/4 27/59/27 34/35/34 
f 64/68/64 41/77/41 69/73/69 
f 69/73/69 35/37/35 64/68/64 
f 30/30/30 29/29/29 50/52/50 
f 50/52/50 68/72/68 30/30/30 
f 49/51/49 29/29/29 1/1/1 
f 28/28/28 1/1/1 29/29/29 
f 5/36/5 53/55/53 43/79/43 
f 34/35/34 53/55/53 5/36/5 
f 24/24/24 32/32/32 3/3/3 
f 23/23/23 32/32/32 24/24/24 
f 60/64/60 48/85/48 31/84/31 
f 67/71/67 60/64/60 31/84/31 
f 39/41/39 11/11/11 65/69/65 
f 65/69/65 11/11/11 10/10/10 
f 49/51/49 1/1/1 17/17/17 
f 16/16/16 49/51/49 17/17/17 
f 9/9/9 56/82/56 7/7/7 
f 56/82/56 9/9/9 26/61/26 
f 27/59/27 58/62/58 57/60/57 
f 58/62/58 8/8/8 57/60/57 
f 44/46/44 55/57/55 22/22/22 
f 23/23/23 22/22/22 55/57/55 
f 39/41/39 65/69/65 40/74/40 
f 16/81/16 39/41/39 40/74/40 
f 60/64/60 61/65/61 48/85/48 
f 18/80/18 48/85/48 61/65/61 
f 35/37/35 52/54/52 64/68/64 
f 35/37/35 37/39/37 52/54/52 
f 2/2/2 62/66/62 24/24/24 
f 2/2/2 28/28/28 62/66/62 
f 31/31/31 23/23/23 66/70/66 
f 23/23/23 55/57/55 66/70/66 
f 3/3/3 70/76/70 63/67/63 
f 63/67/63 1/1/1 3/3/3 
f 18/80/18 61/65/61 38/40/38 
f 18/80/18 38/40/38 39/41/39 
f 42/44/42 14/14/14 51/53/51 
f 13/13/13 51/53/51 14/14/14 
# 136 faces

