# 3ds Max Wavefront OBJ Exporter v0.97b - (c)2007 guruware
# File Created: 18.12.2014 22:48:02

#
# object GeoSphere001
#

v  0.3600 0.4854 -0.5620
v  0.7051 0.0051 -0.2842
v  0.4185 0.1488 -0.5589
v  -0.7948 0.1825 0.0261
v  -0.6390 0.5412 0.2133
v  -0.7217 0.3790 -0.1216
v  0.4905 0.2881 0.5670
v  0.7258 0.1152 0.4474
v  0.6859 0.3564 0.4824
v  0.1103 -0.1330 0.2878
v  -0.0935 0.0863 0.5109
v  -0.4293 0.0017 0.3062
v  -0.1391 0.7144 0.0075
v  -0.2592 0.6860 0.4403
v  -0.0411 0.7289 0.2156
v  0.4654 0.7547 0.1820
v  0.8668 0.1685 0.0735
v  0.4648 0.5215 -0.4435
v  -0.6336 0.3005 -0.3526
v  -0.5523 0.1366 -0.5234
v  -0.7530 0.0498 -0.2913
v  0.0269 -0.1489 -0.3587
v  -0.4707 -0.2255 -0.2995
v  -0.2359 -0.0838 -0.5243
v  0.6141 -0.2337 -0.0257
v  -0.2779 -0.2229 -0.0089
v  0.7518 0.1258 -0.1808
v  -0.5428 0.4964 0.4813
v  0.2806 0.6162 0.5331
v  0.1283 0.7196 0.4005
v  0.2664 0.2700 -0.6315
v  -0.0354 0.6075 -0.5081
v  0.2373 0.6451 -0.5137
v  0.2011 0.8378 -0.0338
v  0.2947 0.7155 -0.4355
v  0.0731 0.8616 -0.2187
v  -0.2469 0.2734 -0.6093
v  0.4213 -0.1120 -0.3158
v  0.5091 0.0021 -0.4420
v  -0.4109 0.3681 0.5944
v  -0.2002 0.4455 0.6644
v  0.5169 0.5093 0.5384
v  -0.4371 0.4364 -0.4881
v  -0.5022 0.5080 -0.2438
v  0.8101 -0.1365 0.1213
v  0.5737 -0.2104 0.2183
v  0.8248 0.2036 0.3322
v  0.7255 -0.1381 -0.1479
v  0.8619 -0.0256 -0.0172
v  0.4420 0.7428 0.3892
v  0.3872 0.6736 -0.0845
v  -0.4946 0.6273 0.3735
v  -0.3588 0.5183 0.6214
v  -0.2213 0.2899 0.6320
v  -0.5865 -0.0685 -0.4350
v  -0.7856 -0.0736 -0.1550
v  -0.6999 0.1382 0.2019
v  -0.7199 -0.1062 0.0210
v  0.6552 0.5761 0.3672
v  0.0209 0.8132 -0.3708
v  0.0211 0.8302 0.0016
v  0.2003 0.8306 0.1944
v  0.7430 -0.0798 0.3201
v  0.3944 -0.0494 0.4344
v  0.8754 0.0228 0.2253
v  0.1425 0.1319 0.5829
v  -0.3163 0.0707 -0.6022
v  0.2600 0.1453 -0.6253
v  0.5073 0.0750 0.5189
# 69 vertices

vn 0.4261 0.3050 -0.8517
vn 0.7396 -0.1858 -0.6469
vn 0.5395 -0.1391 -0.8304
vn -0.9847 0.0412 0.1694
vn -0.7596 0.6440 0.0915
vn -0.8257 0.5104 -0.2403
vn 0.2510 -0.0517 0.9666
vn 0.5739 -0.2300 0.7860
vn 0.6497 0.1884 0.7365
vn -0.0953 -0.8711 0.4817
vn -0.1892 -0.6699 0.7179
vn -0.3381 -0.6849 0.6455
vn -0.4561 0.8899 0.0031
vn -0.1718 0.9125 0.3711
vn -0.2653 0.9482 0.1746
vn 0.5552 0.8257 -0.0996
vn 0.9417 0.2964 -0.1590
vn 0.7473 0.4368 -0.5008
vn -0.7501 0.4165 -0.5138
vn -0.5684 0.0282 -0.8223
vn -0.8827 -0.0334 -0.4688
vn 0.0893 -0.9152 -0.3931
vn -0.2134 -0.9375 -0.2750
vn -0.0173 -0.6887 -0.7249
vn 0.2192 -0.9663 -0.1352
vn -0.0897 -0.9729 0.2132
vn 0.8404 0.2102 -0.4995
vn -0.7472 0.2762 0.6045
vn 0.0911 0.5820 0.8081
vn -0.0882 0.8712 0.4830
vn 0.1822 0.1002 -0.9781
vn -0.1585 0.4706 -0.8680
vn 0.1143 0.5114 -0.8517
vn 0.2922 0.9543 -0.0630
vn 0.4671 0.7517 -0.4657
vn -0.0992 0.9871 -0.1256
vn -0.1741 0.1906 -0.9661
vn 0.1713 -0.8309 -0.5293
vn 0.4083 -0.5506 -0.7281
vn -0.5003 -0.2574 0.8267
vn -0.0372 0.1470 0.9884
vn 0.3725 0.3575 0.8564
vn -0.5044 0.5314 -0.6806
vn -0.5606 0.7778 -0.2840
vn 0.6831 -0.7215 0.1132
vn 0.1116 -0.9286 0.3538
vn 0.9038 0.1667 0.3942
vn 0.5591 -0.6960 -0.4506
vn 0.9288 -0.2372 -0.2847
vn 0.3312 0.8274 0.4536
vn 0.4682 0.8401 -0.2740
vn -0.4957 0.8352 0.2379
vn -0.3348 0.4202 0.8434
vn -0.2010 -0.4139 0.8878
vn -0.5151 -0.5205 -0.6810
vn -0.8636 -0.4925 -0.1085
vn -0.7638 -0.2709 0.5859
vn -0.6404 -0.6685 0.3782
vn 0.7652 0.5912 0.2551
vn -0.2130 0.8636 -0.4569
vn -0.3603 0.9249 0.1214
vn -0.0253 0.9731 0.2288
vn 0.4902 -0.6267 0.6058
vn 0.0300 -0.7179 0.6955
vn 0.9326 -0.2079 0.2949
vn 0.0077 -0.4261 0.9047
vn -0.1875 -0.2448 -0.9513
vn 0.1795 -0.3249 -0.9286
vn 0.2133 -0.4251 0.8796
# 69 vertex normals

vt 0.4119 0.4054 0.0000
vt 0.6145 0.3445 0.0000
vt 0.4982 0.4569 0.0000
vt 0.4362 0.7974 0.0000
vt 0.4396 0.9333 0.0000
vt 0.3666 0.8056 0.0000
vt 0.9027 0.8090 0.0000
vt 0.9459 0.7058 0.0000
vt 0.9793 0.7791 0.0000
vt 0.7292 0.7104 0.0000
vt 0.7000 0.8286 0.0000
vt 0.5780 0.8039 0.0000
vt 0.1914 0.2638 0.0000
vt 0.1206 0.1420 0.0000
vt 0.2053 0.1877 0.0000
vt 0.3731 0.1613 0.0000
vt 0.6018 0.1861 0.0000
vt 0.4345 0.3624 0.0000
vt 0.3326 0.7052 0.0000
vt 0.3715 0.6023 0.0000
vt 0.4146 0.6893 0.0000
vt 0.6199 0.5201 0.0000
vt 0.5035 0.6216 0.0000
vt 0.5136 0.5256 0.0000
vt 0.8372 0.5457 0.0000
vt 0.5857 0.6687 0.0000
vt 0.5957 0.2922 0.0000
vt 0.5474 0.9684 0.0000
vt 0.2889 0.0589 0.0000
vt 0.2495 0.1174 0.0000
vt 0.4195 0.4765 0.0000
vt 0.2846 0.4134 0.0000
vt 0.3603 0.3803 0.0000
vt 0.3035 0.2416 0.0000
vt 0.3638 0.3552 0.0000
vt 0.2824 0.3034 0.0000
vt 0.2527 0.5377 0.0000
vt 0.7351 0.4695 0.0000
vt 0.7297 0.4084 0.0000
vt 0.6203 0.9451 0.0000
vt 0.7072 0.9585 0.0000
vt 0.9460 0.8633 0.0000
vt 0.1669 0.4834 0.0000
vt 0.1057 0.4059 0.0000
vt 0.0091 0.2709 0.0000
vt 0.9100 0.5683 0.0000
vt 0.8494 0.6221 0.0000
vt 0.9971 0.6793 0.0000
vt 0.8479 0.4905 0.0000
vt 0.8190 0.4281 0.0000
vt 0.9173 0.5038 0.0000
vt 0.3794 0.0286 0.0000
vt 0.3547 0.1081 0.0000
vt 0.3833 0.2468 0.0000
vt 0.0493 0.1900 0.0000
vt 0.0044 0.1611 0.0000
vt 0.0620 0.0877 0.0000
vt 0.6840 0.9129 0.0000
vt 0.4407 0.6141 0.0000
vt 0.4472 0.7104 0.0000
vt 0.4846 0.8313 0.0000
vt 0.4719 0.7413 0.0000
vt 0.4383 0.0952 0.0000
vt 0.5742 0.0866 0.0000
vt 0.5870 0.3155 0.0000
vt 0.2842 0.3420 0.0000
vt 0.2486 0.2479 0.0000
vt 0.1501 0.5887 0.0000
vt 0.2886 0.1790 0.0000
vt 0.0181 0.4178 0.0000
vt 0.0834 0.5010 0.0000
vt 0.9161 0.6401 0.0000
vt 0.8300 0.7231 0.0000
vt 0.4792 0.0301 0.0000
vt 0.9627 0.6004 0.0000
vt 0.5778 0.2200 0.0000
vt 0.7800 0.8222 0.0000
vt 0.6398 0.9894 0.0000
vt 0.4426 0.5127 0.0000
vt 0.6001 0.3710 0.0000
vt 0.1193 0.0367 0.0000
vt 0.4386 0.5018 0.0000
vt 0.2627 0.6113 0.0000
vt 0.8799 0.7475 0.0000
vt 0.6762 0.3633 0.0000
# 85 texture coords

g GeoSphere001
f 1/1/1 2/2/2 3/3/3 
f 4/4/4 5/5/5 6/6/6 
f 7/7/7 8/8/8 9/9/9 
f 10/10/10 11/11/11 12/12/12 
f 13/13/13 14/14/14 15/15/15 
f 16/16/16 17/17/17 18/18/18 
f 19/19/19 20/20/20 21/21/21 
f 22/22/22 23/23/23 24/24/24 
f 25/25/25 10/10/10 26/26/26 
f 18/18/18 17/17/17 27/27/27 
f 28/28/28 5/5/5 4/4/4 
f 14/14/14 29/29/29 30/30/30 
f 31/31/31 32/32/32 33/33/33 
f 34/34/34 35/35/35 36/36/36 
f 37/37/37 32/32/32 31/31/31 
f 38/38/38 24/24/24 39/39/39 
f 40/40/40 12/12/12 11/11/11 
f 41/41/41 7/7/7 42/42/42 
f 37/37/37 43/43/43 32/32/32 
f 13/13/13 44/44/44 5/45/5 
f 25/25/25 45/46/45 46/47/46 
f 9/9/9 8/8/8 47/48/47 
f 48/49/48 39/39/39 2/50/2 
f 48/49/48 2/50/2 49/51/49 
f 42/52/42 50/53/50 29/29/29 
f 51/54/51 16/16/16 18/18/18 
f 52/55/52 28/56/28 53/57/53 
f 7/7/7 41/41/41 54/58/54 
f 10/10/10 12/12/12 26/26/26 
f 55/59/55 23/23/23 56/60/56 
f 57/61/57 28/28/28 4/4/4 
f 56/60/56 23/23/23 58/62/58 
f 59/63/59 47/64/47 17/17/17 
f 49/65/49 27/27/27 17/17/17 
f 13/13/13 60/66/60 44/44/44 
f 13/13/13 15/15/15 61/67/61 
f 55/59/55 24/24/24 23/23/23 
f 20/68/20 43/43/43 37/37/37 
f 62/69/62 50/53/50 16/16/16 
f 15/15/15 62/69/62 61/67/61 
f 33/33/33 1/1/1 31/31/31 
f 18/18/18 35/35/35 51/54/51 
f 44/44/44 6/70/6 5/45/5 
f 20/68/20 19/71/19 43/43/43 
f 45/46/45 63/72/63 46/47/46 
f 46/47/46 63/72/63 64/73/64 
f 47/64/47 59/63/59 9/74/9 
f 59/63/59 50/53/50 42/52/42 
f 30/30/30 50/53/50 62/69/62 
f 30/30/30 29/29/29 50/53/50 
f 45/46/45 65/75/65 63/72/63 
f 49/65/49 17/17/17 65/76/65 
f 66/77/66 7/7/7 54/58/54 
f 64/73/64 11/11/11 10/10/10 
f 40/40/40 53/78/53 28/28/28 
f 28/28/28 57/61/57 40/40/40 
f 25/25/25 26/26/26 22/22/22 
f 25/25/25 48/49/48 45/46/45 
f 67/79/67 24/24/24 55/59/55 
f 67/79/67 68/80/68 24/24/24 
f 13/13/13 36/36/36 60/66/60 
f 36/36/36 35/35/35 60/66/60 
f 57/61/57 4/4/4 56/60/56 
f 4/4/4 6/6/6 21/21/21 
f 29/29/29 41/81/41 42/52/42 
f 14/14/14 53/57/53 29/29/29 
f 1/1/1 3/3/3 31/31/31 
f 24/24/24 68/80/68 39/39/39 
f 13/13/13 5/45/5 52/55/52 
f 52/55/52 5/45/5 28/56/28 
f 59/63/59 16/16/16 50/53/50 
f 16/16/16 59/63/59 17/17/17 
f 1/1/1 18/18/18 27/27/27 
f 1/1/1 35/35/35 18/18/18 
f 26/26/26 23/23/23 22/22/22 
f 26/26/26 58/62/58 23/23/23 
f 45/46/45 49/51/49 65/75/65 
f 48/49/48 49/51/49 45/46/45 
f 20/20/20 55/59/55 21/21/21 
f 20/20/20 67/79/67 55/59/55 
f 41/41/41 53/78/53 40/40/40 
f 41/81/41 29/29/29 53/57/53 
f 68/82/68 67/83/67 31/31/31 
f 31/31/31 3/3/3 68/82/68 
f 62/69/62 16/16/16 34/34/34 
f 61/67/61 62/69/62 34/34/34 
f 7/7/7 69/84/69 8/8/8 
f 7/7/7 66/77/66 69/84/69 
f 63/72/63 8/8/8 69/84/69 
f 65/75/65 8/8/8 63/72/63 
f 38/38/38 39/39/39 48/49/48 
f 25/25/25 38/38/38 48/49/48 
f 60/66/60 32/32/32 43/43/43 
f 60/66/60 33/33/33 32/32/32 
f 9/74/9 59/63/59 42/52/42 
f 42/42/42 7/7/7 9/9/9 
f 2/2/2 27/27/27 49/65/49 
f 2/2/2 1/1/1 27/27/27 
f 67/83/67 20/68/20 37/37/37 
f 67/83/67 37/37/37 31/31/31 
f 13/13/13 52/55/52 14/14/14 
f 52/55/52 53/57/53 14/14/14 
f 56/60/56 4/4/4 21/21/21 
f 21/21/21 55/59/55 56/60/56 
f 44/44/44 43/43/43 19/71/19 
f 60/66/60 43/43/43 44/44/44 
f 57/61/57 12/12/12 40/40/40 
f 58/62/58 57/61/57 56/60/56 
f 40/40/40 11/11/11 54/58/54 
f 54/58/54 41/41/41 40/40/40 
f 46/47/46 10/10/10 25/25/25 
f 46/47/46 64/73/64 10/10/10 
f 39/39/39 3/85/3 2/50/2 
f 39/39/39 68/80/68 3/85/3 
f 1/1/1 33/33/33 35/35/35 
f 60/66/60 35/35/35 33/33/33 
f 64/73/64 69/84/69 66/77/66 
f 63/72/63 69/84/69 64/73/64 
f 65/76/65 17/17/17 47/64/47 
f 65/75/65 47/48/47 8/8/8 
f 44/44/44 19/71/19 6/70/6 
f 21/21/21 6/6/6 19/19/19 
f 61/67/61 36/36/36 13/13/13 
f 61/67/61 34/34/34 36/36/36 
f 15/15/15 30/30/30 62/69/62 
f 15/15/15 14/14/14 30/30/30 
f 64/73/64 66/77/66 11/11/11 
f 54/58/54 11/11/11 66/77/66 
f 26/26/26 12/12/12 58/62/58 
f 57/61/57 58/62/58 12/12/12 
f 34/34/34 16/16/16 51/54/51 
f 34/34/34 51/54/51 35/35/35 
f 38/38/38 22/22/22 24/24/24 
f 25/25/25 22/22/22 38/38/38 
# 134 faces

